# xmcd
#
# Track frame offsets: 
#        150
#        13464
#        24686
#        36437
#        47341
#        58934
#        70144
#        82563
#        94910
#        107245
#        118784
#        132521
#        145275
#        160380
#        170783
#        181582
#        192114
#        206037
#        217449
#        231503
#        244272
#        257372
#        272671
#        285418
#        298870
#        308335
#        319702
#        331630
#
# Disc length: 4599 seconds
#
# Revision: 2
# Processed by: cddbd v1.5.2PL0 Copyright (c) Steve Scherf et al.
# Submitted via: ExactAudioCopyFreeDBPlugin 1.0
#
DISCID=a711f51c
DTITLE=Percy Sledge - Percy Sledge:  The Atlantic Recordings [Rhino bo
DTITLE=x set]
DYEAR=2010
DGENRE=Soul
TTITLE0=When a Man Loves a Woman
TTITLE1=Love Me Like You Mean It
TTITLE2=You Fooled Me
TTITLE3=You're Pouring Water on a Drowning Man
TTITLE4=Love Me All the Way
TTITLE5=Thief in the Night
TTITLE6=Put a Little Lovin' on Me
TTITLE7=My Adorable One
TTITLE8=Love Makes the World Go Round
TTITLE9=When She Touches Me (Nothing Else Matters)
TTITLE10=Success
TTITLE11=It Tears Me Up
TTITLE12=Warm and Tender Love
TTITLE13=Sugar Puddin'
TTITLE14=You've Got That Something Wonderful
TTITLE15=I Love Everything About You
TTITLE16=So Much Love
TTITLE17=A Sweet Woman Like You
TTITLE18=Love Me Tender
TTITLE19=Heart of a Child
TTITLE20=You've Really Got a Hold on Me
TTITLE21=I Stand Accused
TTITLE22=Try a Little Tenderness
TTITLE23=With Every Beat of My Heart
TTITLE24=That's How Strong My Love Is
TTITLE25=Oh How Happy
TTITLE26=I'm Hanging Up My Heart for You
TTITLE27=Little Girl
EXTD=
EXTT0=
EXTT1=
EXTT2=
EXTT3=
EXTT4=
EXTT5=
EXTT6=
EXTT7=
EXTT8=
EXTT9=
EXTT10=
EXTT11=
EXTT12=
EXTT13=
EXTT14=
EXTT15=
EXTT16=
EXTT17=
EXTT18=
EXTT19=
EXTT20=
EXTT21=
EXTT22=
EXTT23=
EXTT24=
EXTT25=
EXTT26=
EXTT27=
PLAYORDER=
